<?xml version="1.0" encoding="UTF-8"?>
<svg width="246px" height="55px" viewBox="0 0 246 55" version="1.1" xmlns="http://www.w3.org/2000/svg" xmlns:xlink="http://www.w3.org/1999/xlink">
    <title>Group</title>
    <g id="all_logos" stroke="none" stroke-width="1" fill="none" fill-rule="evenodd">
        <g id="thichdacsan" transform="translate(-8.000000, -48.000000)" fill="#111111" fill-rule="nonzero">
            <g id="Group" transform="translate(8.000000, 48.000000)">
                <g id="SvgjsG2099">
                    <path d="M51.0683737,10.0484286 C51.0832639,10.0484286 51.097445,10.0484286 51.1130442,10.04699 C51.8965497,10.0232535 52.5105912,9.35863126 52.4871924,8.56453717 C52.4857743,8.51562557 52.3347456,3.55613392 52.4595393,1.52630281 C52.5091731,0.733647292 51.9135671,0.0510428564 51.1328977,0.00213126349 C50.3501012,-0.0403067362 49.6786263,0.555983124 49.6289925,1.34791936 C49.4956902,3.50938019 49.6453008,8.44513534 49.6523913,8.65444818 C49.6757901,9.43271794 50.3054308,10.0484286 51.0683737,10.0484286 Z M45.2314346,14.1109679 C45.4186251,14.7288364 45.9794875,15.1266028 46.5857293,15.1266028 C46.723995,15.1266028 46.8643878,15.1057434 47.0040716,15.0625861 C47.7521244,14.8288175 48.1711758,14.0239341 47.9414421,13.2643658 C47.927261,13.2168928 46.4885888,8.47462615 46.0815913,6.48579447 C45.922054,5.70752471 45.171874,5.20618089 44.4046767,5.36874 C43.6374795,5.53057983 43.1461045,6.29158668 43.3049328,7.06985643 C43.7388743,9.19175642 45.1704559,13.9117251 45.2314346,14.1109679 Z M40.4630411,19.8264314 C40.667958,20.4184056 41.2153483,20.7888389 41.8010275,20.7888389 C41.9563105,20.7888389 42.1151388,20.7622253 42.2704218,20.7075594 C43.009966,20.4435806 43.3978189,19.6228729 43.1390139,18.8733747 C43.1227057,18.8266209 41.5046426,14.1469323 41.0189401,12.173925 C40.8289134,11.4021288 40.0588799,10.9360301 39.3001913,11.1266415 C38.5400845,11.3194107 38.0770717,12.1005576 38.2670984,12.8701959 C38.7847084,14.9712365 40.3942628,19.6279079 40.4630411,19.8264314 Z M36.411502,26.3661991 C36.6164188,26.957454 37.1652273,27.327168 37.7494884,27.327168 C37.9061895,27.327168 38.0650178,27.301993 38.2203008,27.2458885 C38.9584268,26.9833483 39.3476979,26.1619213 39.0874748,25.412423 C39.0725847,25.36495 37.4516854,20.6823843 36.9659829,18.7100962 C36.7745381,17.9390194 36.0059227,17.4700435 35.2458159,17.6628127 C34.4857092,17.8577398 34.0241145,18.6381674 34.2141412,19.4078057 C34.7324602,21.5095657 36.3434327,26.1676756 36.411502,26.3661991 Z M55.2220167,9.74776614 C55.4439509,9.87579943 55.6829024,9.93621963 55.9197267,9.93621963 C56.4139379,9.93621963 56.8932589,9.67511804 57.1549001,9.20686147 L60.3789723,3.44608283 C60.7654072,2.75484694 60.5271648,1.87659613 59.8457631,1.4845841 C59.1643614,1.09113349 58.2986055,1.33425288 57.9121707,2.02548877 L54.6880985,7.7869867 C54.3023727,8.47822259 54.5406151,9.3564734 55.2220167,9.74776614 Z M34.4694009,34.7034678 C34.626102,34.7034678 34.7849303,34.6768542 34.9402133,34.6221883 C35.6783393,34.3582095 36.0676104,33.5375018 35.8073873,32.7872842 C35.7924972,32.7412498 34.173016,28.0601227 33.6873135,26.0878346 C33.4972868,25.3167577 32.7272533,24.8499397 31.9678556,25.0412704 C31.2077488,25.2340396 30.7454451,26.0151865 30.9354718,26.7848248 C31.4530818,28.887304 33.0647634,33.5446946 33.1328326,33.7410603 C33.3370404,34.3330344 33.8851398,34.7034678 34.4694009,34.7034678 Z M60.8235497,16.592512 C58.8637222,17.0240849 54.0116602,17.6254097 53.9613173,17.6304448 C53.1841933,17.7261101 52.6304215,18.4439596 52.7247257,19.2322994 C52.8133576,19.9630962 53.4238538,20.4975273 54.1314905,20.4975273 C54.1882149,20.4975273 54.2463573,20.4932115 54.3030817,20.4860186 C54.5079986,20.4608436 59.3373708,19.8638344 61.4241191,19.4042093 C62.1898983,19.2358959 62.6763098,18.4684154 62.509682,17.6930228 C62.3444722,16.9169109 61.5864926,16.4249179 60.8235497,16.592512 Z M65.8386942,9.34064906 C65.4756582,8.63646598 64.6184109,8.36385578 63.9263735,8.73141201 C62.1494821,9.67296018 57.6250035,11.5553372 57.579624,11.5754773 C56.855679,11.8761397 56.5075331,12.7162683 56.8053361,13.4528193 C57.0293974,14.008829 57.5590614,14.3461752 58.1185056,14.3461752 C58.2971874,14.3461752 58.4801235,14.31093 58.6559691,14.2382819 C58.8459958,14.1598795 63.3463666,12.2854147 65.2395429,11.282727 C65.9322895,10.9137322 66.2010212,10.0455514 65.8386942,9.34064906 Z M56.053029,22.7445834 C54.0917834,23.1739984 49.2383033,23.7767618 49.1893785,23.7825161 C48.4122545,23.87962 47.8584827,24.596031 47.952787,25.3843708 C48.0414188,26.1144483 48.651915,26.6495986 49.3595517,26.6495986 C49.4162761,26.6495986 49.4744186,26.6452829 49.532561,26.63809 C49.7360598,26.6129149 54.565432,26.0144672 56.6535984,25.5548421 C57.4179595,25.3879672 57.9043711,24.6219254 57.7391613,23.8450942 C57.5732425,23.0689823 56.81739,22.5755507 56.053029,22.7445834 Z M49.9140325,35.0480068 C47.9542051,35.4795797 43.100725,36.0809046 43.0518002,36.0859396 C42.273258,36.1816049 41.7209043,36.8994545 41.8152086,37.6877943 C41.9024224,38.418591 42.5143367,38.9537414 43.2205552,38.9537414 C43.2772796,38.9537414 43.3354221,38.9494257 43.3935646,38.9422328 C43.5984814,38.9170577 48.4278537,38.3200485 50.5146019,37.8589849 C51.2803811,37.6906714 51.7667927,36.9246296 51.6001648,36.1477984 C51.4328279,35.3724058 50.6783936,34.8804127 49.9140325,35.0480068 Z M54.3548427,11.8466489 C53.7776721,11.3093407 52.8800088,11.3474629 52.3510539,11.9336828 C35.1118046,30.9746782 31.9253123,50.5162981 31.7976824,51.3384444 C31.6764341,52.1239071 32.2046799,52.8583002 32.9782587,52.9820178 C33.0527094,52.994965 33.1271602,53 33.2001928,53 C33.8858488,53 34.4885454,52.4943404 34.5991579,51.7858416 C34.6296473,51.5916338 37.8104671,32.2456603 54.4385112,13.8786379 C54.9695932,13.2938566 54.9313043,12.3846764 54.3548427,11.8466489 Z M53.0934342,28.8959355 C51.1350249,29.3275083 46.2829629,29.9288332 46.2340381,29.9338682 C45.455496,30.0295336 44.9031423,30.7473831 44.9974466,31.5357229 C45.0846603,32.2665196 45.6965746,32.80167 46.4027932,32.80167 C46.4595176,32.80167 46.51766,32.7973543 46.5758025,32.7901614 C46.7807194,32.7649863 51.6100916,32.1679772 53.6968399,31.7069135 C54.461201,31.5371615 54.9476125,30.7711196 54.7795666,29.9942884 C54.6136477,29.2188958 53.8592134,28.7261835 53.0934342,28.8959355 Z M22.708309,22.0605404 C22.8302664,22.092189 22.9522238,22.1080134 23.0720541,22.1080134 C23.7002766,22.1080134 24.2731929,21.6821948 24.442657,21.0377126 C24.4951271,20.8355927 25.7373911,16.0616774 26.0890822,13.9261109 C26.2181302,13.1428061 25.6955568,12.4005008 24.9233962,12.2695903 C24.1469812,12.1379606 23.4202,12.6673567 23.291152,13.4513807 C22.9607325,15.456756 21.712087,20.2544079 21.700033,20.3011616 C21.4993705,21.0693613 21.9510384,21.8562625 22.708309,22.0605404 Z M18.9205382,15.753822 C18.9730083,15.7595763 19.0247693,15.7624535 19.0772393,15.7624535 C19.7905485,15.7624535 20.405299,15.2172331 20.4847131,14.4814013 C20.5066938,14.2728078 21.0349396,9.36726272 21.0703924,7.20076687 C21.0838644,6.40667278 20.4591871,5.750682 19.6763906,5.7384541 C18.8843764,5.7147176 18.2469362,6.35848047 18.2348822,7.15329386 C18.2015567,9.1867214 17.6704746,14.1174415 17.6648022,14.1677917 C17.5797156,14.9568508 18.1419961,15.6667882 18.9205382,15.753822 Z M12.7035458,21.6016345 C12.615623,20.8118562 11.9164949,20.2457764 11.1365347,20.3328103 C9.14338162,20.5586667 4.25303067,20.6579285 4.20410589,20.6586478 C3.4213094,20.6744721 2.79875928,21.3304629 2.81364943,22.1259956 C2.82853958,22.9100196 3.46030741,23.5358003 4.23104998,23.5358003 C4.24026769,23.5358003 4.2494854,23.5358003 4.25941217,23.5358003 C4.46574711,23.5322039 9.32915398,23.4336614 11.4527731,23.1919806 C12.2306062,23.1042274 12.7900504,22.3914129 12.7035458,21.6016345 Z M13.7352205,14.0426356 C13.2055566,13.4578543 12.3078932,13.4204513 11.7314316,13.9570403 C11.1549701,14.4936292 11.1166811,15.4035287 11.6463451,15.9897485 C23.161395,28.7082013 25.3970448,42.0963112 25.4296613,42.2998698 C25.5388557,43.0076493 26.1422614,43.5147474 26.8286264,43.5147474 C26.9023681,43.5147474 26.9754007,43.5089931 27.0505606,43.4967652 C27.8248484,43.3744862 28.3530942,42.6386545 28.2318458,41.8531918 C28.1410868,41.2712877 25.8898378,27.4688678 13.7352205,14.0426356 Z M17.986004,30.297828 C16.0247584,30.7279623 11.1712783,31.3292872 11.1223536,31.3357608 C10.3452295,31.4314261 9.7914577,32.1478371 9.88576199,32.9376155 C9.97368479,33.6669736 10.58489,34.202124 11.2918177,34.202124 C11.3492511,34.202124 11.4066845,34.1992468 11.464827,34.192054 C11.6690348,34.1668789 16.4969889,33.5684312 18.5837372,33.1102446 C19.3495164,32.9433698 19.835928,32.1773279 19.6707182,31.4004967 C19.5047994,30.6236656 18.7475289,30.1309532 17.986004,30.297828 Z M29.8236739,19.5171375 C29.0869659,19.2452466 28.2736801,19.6300658 28.0056574,20.3752483 C27.3185833,22.2871161 25.2268716,26.770439 25.206309,26.8150349 C24.870217,27.5328845 25.1722744,28.3909952 25.8799111,28.7312185 C26.0763193,28.8254452 26.2826542,28.8700411 26.4861529,28.8700411 C27.017235,28.8700411 27.5263363,28.5665015 27.7688331,28.0464562 C27.8574649,27.8580027 29.9385407,23.3962584 30.6702853,21.360673 C30.938308,20.6154905 30.5596728,19.7897477 29.8236739,19.5171375 Z M8.39320164,18.035404 C9.09020251,18.035404 9.69857153,17.5117622 9.79642109,16.7917548 C9.90277931,16.0048536 9.36106144,15.2790919 8.58464644,15.1711986 C8.53643071,15.1640058 3.69358644,14.4842785 1.74155858,14.0203376 C0.982160889,13.8383577 0.216381706,14.3195615 0.0376998972,15.0935155 C-0.140981912,15.866031 0.332666693,16.639985 1.0949006,16.8219649 C3.17384927,17.3168351 7.99329474,17.9915274 8.19750252,18.0217375 C8.26415367,18.0296497 8.32938671,18.035404 8.39320164,18.035404 Z M16.3275248,26.3913742 C16.1913863,25.609508 15.4568055,25.0873048 14.6846449,25.2254081 C12.7099273,25.5792979 7.83659363,25.9936079 7.78766884,25.9979236 C7.00629046,26.0640981 6.42699269,26.7596497 6.49222573,27.5515859 C6.55391349,28.3018035 7.17433644,28.8707604 7.90395383,28.8707604 C7.94295184,28.8707604 7.98265891,28.8678832 8.02307504,28.8650061 C8.22870093,28.8484624 13.0757995,28.4348718 15.1788561,28.0572455 C15.9495986,27.9198615 16.4636634,27.1739597 16.3275248,26.3913742 Z M3.42627278,8.25596256 C5.03937245,9.46148947 8.69242277,12.7601448 8.72858456,12.7939514 C8.99873444,13.0377901 9.33624452,13.1586305 9.67162744,13.1586305 C10.0623166,13.1586305 10.4508787,12.9953521 10.7309553,12.6767074 C11.2514015,12.084014 11.2003496,11.1755531 10.6160884,10.6454377 C10.4622235,10.5066151 6.8283177,7.2230648 5.10815076,5.93913549 C4.47709199,5.46728248 3.58864633,5.60466651 3.12492449,6.24411366 C2.6604936,6.88499938 2.79521401,7.78482883 3.42627278,8.25596256 Z M12.7772875,10.9669595 C12.9254799,11.6358975 13.5111592,12.0912069 14.1599443,12.0912069 C14.2634663,12.0912069 14.3669883,12.0796983 14.4719284,12.0559618 C15.2355804,11.881894 15.7163196,11.112975 15.5454374,10.3375824 C15.5000579,10.1340239 14.4329304,5.31767055 13.7749276,3.25691005 C13.5338489,2.50093823 12.7347442,2.08662827 11.9888185,2.33118623 C11.2436019,2.57646348 10.8351864,3.38710121 11.076265,4.14307303 C11.6945608,6.0779581 12.7666516,10.9180479 12.7772875,10.9669595 Z" id="Shape"></path>
                </g>
                <g id="SvgjsG2100" transform="translate(80.000000, 3.000000)">
                    <path d="M56.3040158,8.48602226 C57.2414969,8.87884486 56.083432,9.83284258 55.6974103,9.66449004 L55.6422644,9.66449004 C49.7416476,7.08308444 32.8669867,6.63414433 19.5216666,7.13920195 C13.3453201,18.6432921 4.85284367,34.6367834 5.23886533,43.783938 C5.29401128,44.1767606 5.40430318,44.5695832 5.62488698,44.6818182 C7.72043311,45.7480509 11.6357956,37.6110115 13.0695903,35.366311 C13.0695903,35.366311 13.5659039,34.0194907 14.2828013,34.6367834 C14.7791148,35.0857235 14.1173634,35.4785461 14.1173634,35.4785461 C13.400466,36.3203087 8.32703857,46.0286385 5.95576269,45.860286 C3.74992465,45.6919334 3.6947787,43.783938 3.6947787,43.783938 C3.363903,34.3000783 11.3600659,19.1483497 17.4812664,7.30755449 C8.32703857,7.70037708 1.04777307,8.59825729 0.882335213,8.6543748 C0.882335213,8.6543748 0,8.26155221 0,7.64425957 C0,6.80249687 1.04777307,6.52190931 1.04777307,6.52190931 C1.81981638,6.52190931 9.26451973,6.01685169 18.4738935,5.79238164 C19.9076882,2.98650598 20.6797315,1.7519207 20.8451694,1.41521562 C20.8451694,1.41521562 21.5620668,0.517335409 22.4995479,0.910158 C23.2164453,1.24686308 22.9407155,2.2008608 22.9407155,2.2008608 C22.9407155,2.25697831 21.9480884,3.21097604 20.5694396,5.73626412 C33.7493219,5.45567656 50.1828152,5.79238164 56.3040158,8.48602226 L56.3040158,8.48602226 Z M35.5305361,29.6984422 C36.2474335,30.0912648 35.4753901,30.5402049 35.4753901,30.5402049 C35.0893685,31.5503201 24.1704702,39.5751245 21.9646322,39.9679471 C21.8543403,40.0240646 21.7440484,40.0240646 21.6889024,40.0240646 C21.1925889,40.0240646 20.9168591,39.7995946 20.7514213,39.631242 C19.8690861,38.6211268 25.3836812,31.2697326 25.2182433,30.3718524 C24.7770757,30.5402049 23.5638648,31.10138 20.4756915,33.9633732 C19.3176266,35.0296059 18.2147075,36.1519562 17.4978102,36.9376014 C15.5677019,41.9320601 14.0787612,46.2531086 13.4170098,49.1712192 L13.4170098,49.1151017 C13.4170098,49.1151017 13.196426,50.2935695 12.4795287,50.4058045 C11.7626313,50.5180396 11.2111718,49.4518068 11.2111718,49.4518068 C11.1008799,48.9467492 10.8802961,48.1049865 15.512556,36.7131313 L15.512556,36.7131313 C15.512556,36.6570138 15.512556,36.6570138 15.5677019,36.6008963 C16.9463507,33.2338455 18.7110211,29.025032 21.027151,23.6938683 C26.1005785,12.0775431 31.2291519,0.573452922 31.2842979,0.461217896 C31.2842979,0.461217896 31.7806114,-0.212192261 32.332071,0.0683953043 C32.8835305,0.292865357 32.7732386,1.13462805 32.7732386,1.13462805 C28.0858327,11.4602505 22.8469674,23.4132807 18.9316049,33.2338455 C19.0970428,33.0093755 19.3176266,32.8410229 19.5382104,32.6726704 C23.5087188,28.9689145 24.8873676,28.6322095 25.6594109,28.800562 C26.1005785,28.8566795 26.4866002,29.1933846 26.652038,29.6423247 C27.2034975,31.2136151 22.0197782,37.8915991 21.9094863,38.3405392 C23.6741567,38.3966567 27.2034975,35.7030161 30.4019627,33.5144331 C32.6078007,31.9992602 34.2070333,30.5402049 34.4276171,30.1473823 C34.4276171,30.1473823 35.0342225,29.4178546 35.5305361,29.6984422 L35.5305361,29.6984422 Z M34.5544528,39.743477 C34.0029933,39.743477 33.5618257,39.4628895 33.3963878,38.9578319 C32.5691985,36.8253664 36.9257287,29.9790298 37.4771882,28.5199744 C37.4771882,28.5199744 38.0837936,27.0048016 39.0764207,27.1170366 C40.1241938,27.2292716 40.3999236,28.4638569 40.1793398,28.9689145 C40.0139019,29.4178546 38.9661288,29.7545597 38.8558369,29.9229123 C37.3668963,33.3460806 34.6647447,36.7131313 34.7750366,38.1160692 C36.4294151,39.2384194 41.8337183,34.0194907 43.7638266,32.1676128 C43.9292644,32.0553778 44.1498482,31.3819676 44.5910158,31.5503201 C45.1424753,31.7747902 44.7564537,32.2798478 44.5358699,32.5043179 C42.7160535,34.4684308 37.5323341,39.7995946 34.6647447,39.743477 L34.5544528,39.743477 L34.5544528,39.743477 Z M41.4476966,23.7499858 C41.4476966,24.3111609 41.4476966,24.8162186 40.9513831,24.8162186 C40.5102155,24.8162186 40.1241938,24.3111609 40.1241938,23.7499858 C40.1241938,23.1326932 40.5102155,22.6837531 40.9513831,22.6837531 C41.4476966,22.6837531 41.6682804,23.1888107 41.4476966,23.7499858 Z M58.3940473,31.9431427 C58.8903609,32.3920828 58.1734635,32.7849054 58.1734635,32.7849054 C57.5117121,33.6266681 51.1699277,40.1362996 47.475149,40.1362996 C47.0339814,40.1362996 46.6479598,40.0240646 46.3170841,39.8557121 C45.7656246,39.5751245 44.8832894,38.7894793 45.0487272,36.8253664 C45.324457,34.0194907 47.7508788,29.8667947 50.2875925,28.9689145 C51.3905115,28.5760919 52.3279927,28.6322095 52.9345982,29.1933846 C54.0375172,30.1473823 53.0448901,31.8870252 52.9897441,32.1114953 C52.9897441,32.1114953 52.7140144,32.6726704 52.1074089,32.6165529 C51.5559494,32.6165529 51.1699277,31.9431427 51.1699277,31.9431427 L51.1699277,31.9431427 C51.2802196,31.4942026 52.1625549,30.6524399 51.9419711,30.4279699 C51.7213873,30.2596173 51.3353656,30.3157348 50.7839061,30.4840874 C49.0743816,31.10138 46.8685436,34.5806658 46.6479598,36.9937189 C46.5928138,37.4987765 46.6479598,38.6772443 47.0891274,38.9017143 C48.68836,39.7995946 55.2507281,35.0296059 57.1256904,32.6726704 C57.1256904,32.6726704 57.6771499,31.3258501 58.3940473,31.9431427 L58.3940473,31.9431427 Z M78.649155,29.6984422 C79.3660524,30.0912648 78.5940091,30.5402049 78.5940091,30.5402049 C78.2079874,31.5503201 67.2890892,39.5751245 65.0832511,39.9679471 C64.9729592,40.0240646 64.8626673,40.0240646 64.8075214,40.0240646 C64.3112078,40.0240646 64.0354781,39.7995946 63.8700402,39.631242 C62.987705,38.6211268 68.5023001,31.2697326 68.3368622,30.3718524 C67.8956946,30.5402049 66.6824837,31.10138 63.5943105,33.9633732 C62.4362455,35.0296059 61.3333265,36.1519562 60.6164291,36.9376014 C58.6863208,41.9320601 57.1973802,46.2531086 56.5356288,49.1712192 L56.5356288,49.1151017 C56.5356288,49.1151017 56.315045,50.2935695 55.5981476,50.4058045 C54.8812502,50.5180396 54.3297907,49.4518068 54.3297907,49.4518068 C54.2194988,48.9467492 53.998915,48.1049865 58.6311749,36.7131313 L58.6311749,36.7131313 C58.6311749,36.6570138 58.6311749,36.6570138 58.6863208,36.6008963 C60.0649696,33.2338455 61.82964,29.025032 64.14577,23.6938683 C69.2191974,12.0775431 74.3477709,0.573452922 74.4029168,0.461217896 C74.4029168,0.461217896 74.8992304,-0.212192261 75.4506899,0.0683953043 C76.0021494,0.292865357 75.8918575,1.13462805 75.8918575,1.13462805 C71.2044517,11.4602505 65.9655863,23.4132807 62.0502238,33.2338455 C62.2156617,33.0093755 62.4362455,32.8410229 62.6568293,32.6726704 C66.6273378,28.9689145 68.0059865,28.6322095 68.7780298,28.800562 C69.2191974,28.8566795 69.6052191,29.1933846 69.7706569,29.6423247 C70.3221165,31.2136151 65.1383971,37.8915991 65.0281052,38.3405392 C66.7927756,38.3966567 70.3221165,35.7030161 73.5205816,33.5144331 C75.7264196,31.9992602 77.3256522,30.5402049 77.546236,30.1473823 C77.546236,30.1473823 78.1528415,29.4178546 78.649155,29.6984422 L78.649155,29.6984422 Z M101.716706,2.2008608 C101.551268,2.64980091 83.9597101,41.0902974 81.1472666,50.2935695 C80.9818287,50.7986271 81.864164,51.1353322 81.4781423,51.7526248 C81.4781423,51.7526248 80.9818287,52.0893299 80.2097854,51.9770949 C79.4928881,51.8087424 79.60318,50.8547446 79.60318,50.8547446 C80.1546395,47.936634 84.7317534,36.8814839 89.4743052,25.9385688 C88.2610943,28.1271518 87.1581752,30.0351473 86.330986,31.3819676 C86.4412779,31.5503201 86.4964238,31.8309077 86.3861319,32.1114953 C86.1655481,32.6165529 85.8898184,32.5604354 85.6692346,32.4482003 C85.5589427,32.5604354 85.4486508,32.7287879 85.3383589,32.8410229 L84.9523372,33.4021981 C83.0222289,35.9274862 81.3127045,38.1160692 79.4928881,38.2844217 C79.4377421,38.3405392 79.3274502,38.3405392 79.2171583,38.3405392 C78.6656988,38.3405392 78.1142393,38.1160692 77.6179257,37.7232466 C77.0113203,37.1620714 76.7907365,36.2641912 77.0113203,35.0857235 C77.4524879,32.953258 79.3825962,30.2034998 81.7538721,29.5300897 C82.6362073,29.3056196 83.9045641,29.2495021 85.172921,30.2034998 C88.7022619,24.4795135 97.3050302,8.03708216 97.8013437,7.08308444 C99.1799925,3.99662122 100.117474,1.92027324 100.282912,1.52745064 C100.282912,1.52745064 100.779225,1.02239303 101.330685,1.30298059 C101.93729,1.58356816 101.716706,2.2008608 101.716706,2.2008608 Z M84.1251479,31.8309077 C84.1802939,31.7747902 84.4008777,31.3819676 84.4560236,31.3258501 C84.014856,30.9330275 82.8016451,30.5963224 82.0847478,30.764675 C80.4303692,31.10138 78.9414286,33.7950207 78.5554069,35.4224285 C78.445115,35.9836037 78.500261,36.3764263 78.6105529,36.4325438 C78.9414286,36.7131313 79.1620124,36.7131313 79.3274502,36.7131313 C80.4855152,36.5447788 82.1950397,34.3561958 83.6839803,32.3920828 L84.1251479,31.8309077 Z M106.806678,34.5806658 C106.806678,34.5806658 107.247845,34.3561958 107.468429,34.5806658 C107.689013,34.8612534 107.468429,35.1979585 107.468429,35.1979585 C106.034634,36.9376014 101.953834,40.2485347 99.7479958,40.2485347 C99.0310984,40.2485347 98.5899308,39.9679471 98.424493,39.6873595 C97.9281794,39.1261844 97.6524497,38.0599517 99.0310984,34.5245483 C94.8951521,39.406772 93.5716493,38.9578319 93.0753358,38.8455968 C92.7444601,38.7333618 92.1378546,38.3405392 92.0275627,37.218189 L92.0275627,37.1620714 C91.9172708,34.8051359 97.9833254,28.2955044 99.1413903,28.4077394 C99.1413903,28.4077394 99.9685796,28.6322095 99.9134337,29.025032 C99.9134337,29.7545597 99.1965363,30.0351473 98.9208065,29.9790298 C97.8730335,29.4739722 93.5165034,35.254076 93.6267953,37.1059539 L93.6267953,37.2743065 C94.2885467,37.1059539 96.218655,35.5907811 99.2516822,31.7186727 C100.134017,30.5402049 100.850915,29.6984422 101.236936,29.1933846 C101.73325,28.6322095 102.174418,28.0710343 102.781023,28.5760919 C103.001607,28.7444445 103.277337,29.1372671 102.946461,29.6984422 C100.850915,33.7389031 99.3619741,37.7793641 99.6377039,38.6211268 C99.8582877,39.4628895 101.292082,39.0139494 103.167045,37.7232466 C104.545694,36.7692489 106.034634,35.4785461 106.806678,34.5806658 L106.806678,34.5806658 Z M121.82292,31.9431427 C122.319233,32.3920828 121.602336,32.7849054 121.602336,32.7849054 C120.940585,33.6266681 114.5988,40.1362996 110.904022,40.1362996 C110.462854,40.1362996 110.076832,40.0240646 109.745957,39.8557121 C109.194497,39.5751245 108.312162,38.7894793 108.4776,36.8253664 C108.75333,34.0194907 111.179751,29.8667947 113.716465,28.9689145 C114.819384,28.5760919 115.756865,28.6322095 116.363471,29.1933846 C117.46639,30.1473823 116.473763,31.8870252 116.418617,32.1114953 C116.418617,32.1114953 116.142887,32.6726704 115.536282,32.6165529 C114.984822,32.6165529 114.5988,31.9431427 114.5988,31.9431427 L114.5988,31.9431427 C114.709092,31.4942026 115.591427,30.6524399 115.370844,30.4279699 C115.15026,30.2596173 114.764238,30.3157348 114.212779,30.4840874 C112.503254,31.10138 110.297416,34.5806658 110.076832,36.9937189 C110.021686,37.4987765 110.076832,38.6772443 110.518,38.9017143 C112.117233,39.7995946 118.679601,35.0296059 120.554563,32.6726704 C120.554563,32.6726704 121.106023,31.3258501 121.82292,31.9431427 L121.82292,31.9431427 Z M128.236394,30.2034998 C127.960664,31.3819676 127.464351,32.1114953 127.023183,32.1676128 C125.865118,32.3920828 126.747453,30.8207925 126.637161,30.2034998 C126.471724,29.3056196 125.093075,30.2034998 125.093075,30.9330275 C125.093075,32.1114953 125.534242,33.3460806 126.471724,34.5806658 L126.637161,34.6367834 C129.118729,32.5604354 134.081865,31.2697326 134.137011,31.2697326 C134.137011,31.2697326 134.41274,31.3258501 134.41274,31.5503201 C134.467886,31.7186727 134.192157,32.1114953 134.192157,32.1114953 C132.427486,32.1114953 127.298913,35.7591336 127.133475,35.7591336 C128.346686,37.8354816 127.133475,41.0902974 125.093075,42.3810002 C124.265886,43.1105278 123.218112,43.5594679 122.060047,43.7278205 C120.626253,43.5033504 119.909355,43.0544103 119.909355,42.3248826 L119.909355,41.9320601 C119.909355,40.8097098 124.541615,36.4325438 125.368805,35.7591336 C125.479096,35.5907811 125.479096,35.6468986 125.479096,35.4785461 C124.21074,33.6266681 123.604134,32.1676128 123.604134,31.0452625 C123.93501,27.0609191 128.236394,28.7444445 128.236394,30.2034998 L128.236394,30.2034998 Z M121.508588,42.1565301 L121.508588,42.2126476 C121.508588,42.3810002 121.729172,42.4932352 122.060047,42.4932352 C123.493842,42.4932352 127.023183,39.2384194 126.306286,36.9937189 L126.361432,36.4886613 L126.030556,36.9937189 C123.493842,39.0700669 121.508588,41.595355 121.508588,42.1565301 L121.508588,42.1565301 Z M148.215772,34.5806658 C148.215772,34.5806658 148.65694,34.3561958 148.877523,34.5806658 C149.098107,34.8612534 148.877523,35.1979585 148.877523,35.1979585 C147.443729,36.9376014 143.362928,40.2485347 141.15709,40.2485347 C140.440193,40.2485347 139.999025,39.9679471 139.833587,39.6873595 C139.337274,39.1261844 139.061544,38.0599517 140.440193,34.5245483 C136.304247,39.406772 134.980744,38.9578319 134.48443,38.8455968 C134.153555,38.7333618 133.546949,38.3405392 133.436657,37.218189 L133.436657,37.1620714 C133.326365,34.8051359 139.39242,28.2955044 140.550485,28.4077394 C140.550485,28.4077394 141.377674,28.6322095 141.322528,29.025032 C141.322528,29.7545597 140.605631,30.0351473 140.329901,29.9790298 C139.282128,29.4739722 134.925598,35.254076 135.03589,37.1059539 L135.03589,37.2743065 C135.697641,37.1059539 137.627749,35.5907811 140.660777,31.7186727 C141.543112,30.5402049 142.260009,29.6984422 142.646031,29.1933846 C143.142344,28.6322095 143.583512,28.0710343 144.190118,28.5760919 C144.410701,28.7444445 144.686431,29.1372671 144.355555,29.6984422 C142.260009,33.7389031 140.771069,37.7793641 141.046798,38.6211268 C141.267382,39.4628895 142.701177,39.0139494 144.576139,37.7232466 C145.954788,36.7692489 147.443729,35.4785461 148.215772,34.5806658 L148.215772,34.5806658 Z M164.996685,33.8511382 C165.32756,33.1216105 166.099604,33.3460806 165.989312,33.6266681 C163.397452,39.9118296 157.496835,45.1307583 155.842457,45.1307583 C155.677019,45.1307583 155.566727,45.0746408 155.511581,45.0746408 C155.235851,45.0185233 154.629246,44.7379357 154.629246,43.7278205 C154.5741,42.2687651 155.677019,40.1362996 156.89023,37.7232466 C157.607127,36.2080737 158.324025,34.6367834 158.710046,33.4021981 C159.151214,32.1676128 159.040922,31.4942026 158.985776,31.3258501 C157.44169,30.87691 155.015268,34.8612534 153.746911,37.0498364 C152.423408,39.2384194 151.871948,40.1362996 150.989613,39.9679471 C150.769029,39.9679471 150.327862,39.7995946 150.162424,39.0139494 C149.610965,36.3764263 152.643992,31.2136151 152.919722,30.6524399 C152.919722,30.6524399 153.305743,29.3056196 154.5741,30.2034998 C155.180706,30.5963224 154.077787,31.3819676 154.077787,31.3819676 C153.250597,32.8410229 152.147678,35.366311 151.816803,37.1620714 C151.98224,36.8253664 152.202824,36.4886613 152.368262,36.2080737 C154.29837,32.953258 156.945376,28.5760919 159.757819,29.9229123 L159.868111,29.9790298 L159.978403,30.0351473 C161.52249,31.3819676 160.033549,34.5245483 158.324025,38.1721867 C157.44169,39.9679471 156.504208,41.9881776 156.283625,43.2227629 C157.938003,43.4472329 162.459971,39.1823019 164.996685,33.8511382 L164.996685,33.8511382 Z" id="Shape"></path>
                </g>
            </g>
        </g>
    </g>
</svg>